<svg width="239" height="50" viewBox="0 0 239 50" fill="none" xmlns="http://www.w3.org/2000/svg">
<g clip-path="url(#clip0_3_65)">
<path d="M72.6301 12.0059V37.8536H78.4947V17.1942H92.4929V37.8536H98.4045V12.0059H72.6301ZM108.666 24.953C108.666 19.6245 112.497 16.3987 117.415 16.3987C122.334 16.3987 126.163 19.6245 126.163 24.953C126.163 30.2814 122.334 33.5066 117.415 33.5066C112.497 33.5066 108.666 30.2814 108.666 24.953M132.074 24.953C132.074 16.8197 125.359 11.3978 117.415 11.3978C109.47 11.3978 102.755 16.8197 102.755 24.953C102.755 33.0862 109.47 38.5082 117.415 38.5082C125.359 38.5082 132.074 33.0862 132.074 24.953M142.81 12.0059L139.31 30.5152C139.027 31.9172 138.127 32.525 136.756 32.525H133.92V37.8536H137.04C141.344 37.8536 144.228 35.8436 145.079 31.2633L147.728 17.2401H157.753V37.8536H163.665V12.0059H142.81ZM169.339 12.0059V37.8536H175.157V26.9163H179.129C180.027 34.348 186.033 38.5082 193.317 38.5082C201.214 38.5082 207.598 33.6001 207.598 24.953C207.598 16.3061 201.214 11.3978 193.317 11.3978C186.461 11.3978 180.738 15.0908 179.366 21.6806H175.157V12.0059H169.339ZM184.899 24.953C184.899 19.6245 187.785 16.3987 193.317 16.3987C198.85 16.3987 201.735 19.6245 201.735 24.953C201.735 30.2814 198.85 33.5066 193.317 33.5066C187.785 33.5066 184.899 30.2814 184.899 24.953M238.999 18.316C236.304 13.7814 231.86 11.3978 225.759 11.3978C217.529 11.3978 211.145 16.5868 211.145 24.953C211.145 33.3198 217.388 38.5082 225.759 38.5082C231.86 38.5082 236.304 36.1245 238.999 31.5908L234.413 28.973C232.426 31.7776 229.826 33.3198 225.664 33.3198C220.557 33.3198 217.01 29.9545 217.01 24.953C217.01 19.8581 220.414 16.5868 225.664 16.5868C229.826 16.5868 232.426 18.129 234.413 20.9331L238.999 18.316" fill="#2B2E2D"/>
<path fill-rule="evenodd" clip-rule="evenodd" d="M30.4271 0.758516L27.336 19.1146C27.2631 19.5514 26.7872 19.748 26.3717 19.5883L17.0813 16.0407C15.9313 15.6015 15.5467 14.7477 15.7048 13.8043L17.6833 2.05732C17.8428 1.11592 18.4855 0.430819 19.7189 0.383419L29.6702 0.000718665C30.116 -0.0154813 30.5012 0.322416 30.4271 0.758516M3.75668 13.9743L20.4836 22.5163C20.8807 22.7193 20.9247 23.2273 20.6438 23.5693L14.375 31.2191C13.5991 32.1658 12.6598 32.2657 11.8005 31.8271L1.09555 26.361C0.236938 25.9218 -0.223848 25.1069 0.108293 23.9326L2.79503 14.4538C2.91514 14.0282 3.35956 13.7713 3.75668 13.9743M8.23154 43.0551L21.6382 29.9903C21.9573 29.6796 22.4588 29.7964 22.7017 30.1669L28.1132 38.4292C28.7834 39.453 28.5878 40.3672 27.8998 41.0387L19.3198 49.3989C18.6312 50.0698 17.7043 50.2502 16.6777 49.5729L8.39496 44.1074C8.02346 43.8628 7.91379 43.3658 8.23154 43.0551ZM37.7547 47.7945L29.2277 31.2029C29.025 30.8085 29.2902 30.3726 29.7202 30.2563L39.3281 27.6671C40.5183 27.3466 41.34 27.8078 41.7779 28.6604L47.2341 39.2771C47.6719 40.1297 47.5649 41.0574 46.6013 41.8191L38.8181 47.9605C38.4688 48.2356 37.9562 48.1883 37.7547 47.7945M51.3322 21.7416L32.7127 24.5049C32.2703 24.5697 31.9349 24.1837 31.9592 23.7438L32.5046 13.9146C32.5723 12.6981 33.2746 12.0728 34.2311 11.9307L46.1451 10.1633C47.1015 10.0206 47.9587 10.4144 48.3854 11.5582L51.827 20.7957C51.9807 21.2097 51.7745 21.6761 51.3322 21.7416" fill="#F9AA24"/>
</g>
<defs>
<clipPath id="clip0_3_65">
<rect width="239" height="50" fill="white"/>
</clipPath>
</defs>
</svg>
